<svg width="2168" height="400" viewBox="0 0 2168 400" fill="none" xmlns="http://www.w3.org/2000/svg">
<g clip-path="url(#clip0_90_156)">
<path d="M528 199.906C528 188.344 530.031 177.354 534.094 166.938C538.156 156.521 543.885 147.302 551.281 139.281C558.677 131.156 567.323 124.75 577.219 120.062C587.219 115.375 598.104 113.031 609.875 113.031C619.562 113.031 629.25 115.479 638.938 120.375C648.729 125.271 656.594 131.99 662.531 140.531L664.406 127.875C665.031 123.604 666.385 119.958 668.469 116.938C670.656 113.812 673.885 112.25 678.156 112.25C682.427 112.25 686.073 113.812 689.094 116.938C692.219 119.958 693.781 123.604 693.781 127.875V327.406C693.781 331.677 692.219 335.323 689.094 338.344C686.073 341.469 682.427 343.031 678.156 343.031C673.885 343.031 670.188 341.469 667.062 338.344C664.042 335.323 662.531 331.677 662.531 327.406V261.625C655.865 269.438 648.312 275.635 639.875 280.219C631.438 284.802 621.802 287.094 610.969 287.094C600.344 287.094 590.083 285.062 580.188 281C570.292 276.938 561.542 271.208 553.938 263.812C545.396 255.271 538.938 245.427 534.562 234.281C530.188 223.135 528 211.677 528 199.906ZM609.562 144.281C599.979 144.281 591.333 146.885 583.625 152.094C576.021 157.302 570.031 164.125 565.656 172.562C561.281 181 559.094 190.115 559.094 199.906C559.094 209.594 561.281 218.76 565.656 227.406C570.135 235.948 576.229 242.927 583.938 248.344C591.75 253.656 600.552 256.312 610.344 256.312C620.344 256.312 629.146 253.76 636.75 248.656C644.458 243.552 650.5 236.781 654.875 228.344C659.25 219.906 661.438 210.688 661.438 200.688C661.438 193.396 660.135 186.26 657.531 179.281C655.031 172.198 651.438 166.104 646.75 161C642.062 155.792 636.385 151.729 629.719 148.812C623.052 145.792 616.333 144.281 609.562 144.281Z" fill="white"/>
<path d="M833.312 262.719C827.688 268.135 820.969 273.604 813.156 279.125C805.344 284.542 796.177 287.25 785.656 287.25C772.01 287.25 760.656 283.656 751.594 276.469C742.531 269.177 735.865 260.74 731.594 251.156C728.26 243.552 726.229 236.052 725.5 228.656C724.875 221.156 724.562 214.125 724.562 207.562V128.656C724.562 124.385 726.073 120.74 729.094 117.719C732.219 114.594 735.917 113.031 740.188 113.031C744.458 113.031 748.104 114.594 751.125 117.719C754.25 120.74 755.812 124.385 755.812 128.656V207.562C755.812 213.604 756.073 219.281 756.594 224.594C757.219 229.802 758.417 234.385 760.188 238.344C762.271 242.927 765.396 247.042 769.562 250.688C773.729 254.229 778.99 256 785.344 256C800.76 256 812.583 250.115 820.812 238.344C829.146 226.573 833.26 210.688 833.156 190.688L833 128.344C833 124.073 834.51 120.427 837.531 117.406C840.656 114.281 844.354 112.719 848.625 112.719C853 112.719 856.698 114.281 859.719 117.406C862.74 120.427 864.25 124.125 864.25 128.5L864.562 272.094C864.562 276.365 863.365 280.062 860.969 283.188C858.677 286.208 855.396 287.719 851.125 287.719C846.854 287.719 843.573 286.208 841.281 283.188C838.99 280.062 837.219 276.365 835.969 272.094L833.312 262.719Z" fill="white"/>
<path d="M910.969 96.625C906.177 96.625 902.271 95.1667 899.25 92.25C896.229 89.2292 894.667 85.5312 894.562 81.1562L894.25 69.2812C894.25 65.3229 896.021 62.1458 899.562 59.75C903.104 57.25 906.49 56 909.719 56C914.094 56 917.74 57.5104 920.656 60.5312C923.677 63.5521 925.24 67.1979 925.344 71.4688L925.5 80.8438C925.5 84.9062 924.146 88.5521 921.438 91.7812C918.729 95.0104 915.24 96.625 910.969 96.625ZM894.094 126.156C894.094 122.198 895.76 118.969 899.094 116.469C902.427 113.969 905.656 112.719 908.781 112.719C913.365 112.719 917.271 114.073 920.5 116.781C923.729 119.49 925.344 123.083 925.344 127.562V127.719L925.656 272.406C925.656 276.573 924.094 280.115 920.969 283.031C917.948 285.948 914.302 287.406 910.031 287.406C905.656 287.406 901.958 285.948 898.938 283.031C895.917 280.01 894.406 276.417 894.406 272.25L894.094 126.156Z" fill="white"/>
<path d="M1085.81 112.719C1089.56 112.719 1092.95 114.229 1095.97 117.25C1099.09 120.271 1100.66 123.604 1100.66 127.25C1100.66 130.479 1100.14 133.135 1099.09 135.219L1033.16 277.875C1030.34 283.812 1025.55 286.781 1018.78 286.781C1011.8 286.781 1007.11 283.604 1004.72 277.25L945.656 134.594C944.823 132.823 944.406 130.375 944.406 127.25C944.406 123.917 945.812 120.688 948.625 117.562C951.542 114.333 954.771 112.719 958.312 112.719C966.438 112.719 971.854 115.948 974.562 122.406L1020.03 233.031L1070.81 121.781C1073.62 115.74 1078.62 112.719 1085.81 112.719Z" fill="white"/>
<path d="M1194.09 111.938C1201.8 111.938 1209.3 113.5 1216.59 116.625C1223.99 119.646 1230.55 123.5 1236.28 128.188C1242.11 132.771 1246.44 137.51 1249.25 142.406L1250.97 127.406C1250.97 123.135 1252.22 119.49 1254.72 116.469C1257.22 113.344 1260.6 111.781 1264.88 111.781C1269.15 111.781 1272.79 113.344 1275.81 116.469C1278.94 119.49 1280.5 123.135 1280.5 127.406V127.719L1280.19 272.406C1280.19 276.677 1278.62 280.375 1275.5 283.5C1272.48 286.521 1268.83 288.031 1264.56 288.031C1260.29 288.031 1256.91 286.521 1254.41 283.5C1251.91 280.375 1250.66 276.677 1250.66 272.406L1248.94 259.906C1243.52 269.177 1235.6 276.104 1225.19 280.688C1214.77 285.167 1204.3 287.406 1193.78 287.406C1182.01 287.406 1170.97 285.115 1160.66 280.531C1150.34 275.844 1141.28 269.438 1133.47 261.312C1125.66 253.188 1119.51 243.865 1115.03 233.344C1110.66 222.823 1108.47 211.729 1108.47 200.062C1108.47 188.5 1110.6 177.458 1114.88 166.938C1119.25 156.312 1125.29 146.885 1133 138.656C1140.81 130.323 1149.88 123.812 1160.19 119.125C1170.6 114.333 1181.91 111.938 1194.09 111.938ZM1248 199.75C1248 189.542 1245.6 180.167 1240.81 171.625C1236.12 163.083 1229.72 156.208 1221.59 151C1213.47 145.792 1204.2 143.188 1193.78 143.188C1183.57 143.188 1174.35 145.792 1166.12 151C1157.9 156.208 1151.39 163.135 1146.59 171.781C1141.8 180.323 1139.41 189.594 1139.41 199.594C1139.41 209.698 1141.85 219.073 1146.75 227.719C1151.65 236.26 1158.21 243.135 1166.44 248.344C1174.77 253.552 1183.94 256.156 1193.94 256.156C1203.94 256.156 1213 253.552 1221.12 248.344C1229.35 243.135 1235.86 236.26 1240.66 227.719C1245.55 219.073 1248 209.75 1248 199.75Z" fill="white"/>
<path d="M1320 125.531C1320 122.094 1321.51 119.073 1324.53 116.469C1327.55 113.865 1330.78 112.562 1334.22 112.562C1337.76 112.562 1340.89 113.552 1343.59 115.531C1346.41 117.51 1348.23 119.958 1349.06 122.875L1380.31 228.969L1417.34 124.906H1417.5C1420.1 120.323 1424.69 118.031 1431.25 118.031C1434.27 118.031 1437.08 118.708 1439.69 120.062C1442.29 121.312 1444.11 122.979 1445.16 125.062V125.219L1481.09 226.469L1510 123.031C1510.83 120.219 1512.55 117.771 1515.16 115.688C1517.76 113.604 1520.94 112.562 1524.69 112.562C1528.02 112.562 1531.25 113.812 1534.38 116.312C1537.5 118.708 1539.06 121.729 1539.06 125.375C1539.06 127.667 1538.85 129.49 1538.44 130.844L1497.5 275.219C1496.77 277.823 1495.05 280.271 1492.34 282.562C1489.74 284.75 1486.72 285.844 1483.28 285.844C1480.05 285.844 1477.14 284.958 1474.53 283.188C1472.03 281.312 1470.26 279.125 1469.22 276.625L1431.41 172.094L1392.97 277.562C1391.93 280.375 1390.05 282.615 1387.34 284.281C1384.74 286.052 1381.88 286.938 1378.75 286.938C1375.52 286.938 1372.55 285.948 1369.84 283.969C1367.24 281.99 1365.52 279.542 1364.69 276.625L1320.47 131C1320.16 129.438 1320 127.615 1320 125.531ZM1632.5 112.719C1644.48 112.719 1655.62 115.01 1665.94 119.594C1676.35 124.177 1685.47 130.531 1693.28 138.656C1701.09 146.781 1707.19 156.104 1711.56 166.625C1716.04 177.146 1718.28 188.344 1718.28 200.219C1718.28 211.885 1716.04 222.979 1711.56 233.5C1707.08 243.917 1700.89 253.135 1692.97 261.156C1685.16 269.073 1676.04 275.323 1665.62 279.906C1655.31 284.49 1644.27 286.781 1632.5 286.781C1620.83 286.781 1609.79 284.542 1599.38 280.062C1589.06 275.583 1579.95 269.385 1572.03 261.469C1564.22 253.552 1558.07 244.385 1553.59 233.969C1549.11 223.448 1546.88 212.198 1546.88 200.219C1546.88 188.344 1549.11 177.146 1553.59 166.625C1558.07 156.104 1564.22 146.833 1572.03 138.812C1579.95 130.688 1589.06 124.333 1599.38 119.75C1609.69 115.062 1620.73 112.719 1632.5 112.719ZM1578.44 200.531C1578.44 210.635 1580.89 219.854 1585.78 228.188C1590.78 236.417 1597.4 242.979 1605.62 247.875C1613.85 252.771 1622.86 255.219 1632.66 255.219C1642.66 255.219 1651.72 252.719 1659.84 247.719C1668.07 242.615 1674.58 235.896 1679.38 227.562C1684.27 219.229 1686.72 210.115 1686.72 200.219C1686.72 190.115 1684.32 180.844 1679.53 172.406C1674.74 163.865 1668.23 157.042 1660 151.938C1651.88 146.833 1642.71 144.281 1632.5 144.281C1622.19 144.281 1612.97 146.885 1604.84 152.094C1596.72 157.198 1590.26 164.021 1585.47 172.562C1580.78 181 1578.44 190.323 1578.44 200.531ZM1845.16 132.406C1845.16 140.74 1841.15 145.375 1833.12 146.312C1830.21 146.625 1826.51 145.688 1822.03 143.5C1817.55 141.208 1813.02 140.062 1808.44 140.062C1799.38 140.062 1792.19 142.406 1786.88 147.094C1781.56 151.677 1777.76 157.875 1775.47 165.688C1773.18 173.5 1772.03 182.25 1772.03 191.938V272.562C1772.03 277.146 1770.62 280.792 1767.81 283.5C1765.1 286.208 1761.3 287.562 1756.41 287.562C1751.61 287.562 1747.81 286.208 1745 283.5C1742.19 280.792 1740.78 277.094 1740.78 272.406V128.5C1740.78 123.812 1741.93 119.958 1744.22 116.938C1746.61 113.917 1749.84 112.406 1753.91 112.406C1756.3 112.406 1759.06 113.448 1762.19 115.531C1765.42 117.51 1767.66 120.948 1768.91 125.844L1770.47 137.094C1771.82 134.177 1774.43 130.792 1778.28 126.938C1782.14 123.083 1786.72 119.75 1792.03 116.938C1797.34 114.021 1802.86 112.562 1808.59 112.562C1819.22 112.562 1827.97 113.812 1834.84 116.312C1841.72 118.708 1845.16 124.073 1845.16 132.406ZM1863.91 71.625C1863.91 67.3542 1865.42 63.7083 1868.44 60.6875C1871.56 57.5625 1875.26 56 1879.53 56C1883.8 56 1887.45 57.5625 1890.47 60.6875C1893.59 63.7083 1895.16 67.3542 1895.16 71.625V183.344L1958.44 117.562C1961.35 114.229 1965.16 112.562 1969.84 112.562C1974.11 112.562 1977.76 114.125 1980.78 117.25C1983.91 120.271 1985.47 123.917 1985.47 128.188C1985.47 132.562 1983.96 136.26 1980.94 139.281L1930.31 191.938L1983.59 261.938C1985.78 264.646 1986.88 267.875 1986.88 271.625C1986.88 275.896 1985.31 279.594 1982.19 282.719C1979.17 285.74 1975.52 287.25 1971.25 287.25C1969.06 287.25 1966.77 286.573 1964.38 285.219C1961.98 283.969 1960.1 282.51 1958.75 280.844L1908.44 214.594L1895.16 228.344V271.156C1895.16 275.427 1893.59 279.125 1890.47 282.25C1887.45 285.271 1883.8 286.781 1879.53 286.781C1875.26 286.781 1871.56 285.271 1868.44 282.25C1865.42 279.125 1863.91 275.427 1863.91 271.156V71.625ZM2088.75 112.406C2103.65 112.406 2117.14 115.688 2129.22 122.25C2141.41 128.708 2150.42 137.458 2156.25 148.5C2157.5 150.688 2158.12 153.188 2158.12 156C2158.12 160.271 2156.56 163.969 2153.44 167.094C2150.42 170.115 2146.77 171.625 2142.5 171.625C2139.9 171.625 2137.19 170.792 2134.38 169.125C2131.67 167.354 2129.74 165.323 2128.59 163.031C2125.16 156.573 2120 151.729 2113.12 148.5C2106.25 145.271 2098.07 143.656 2088.59 143.656C2083.07 143.656 2076.82 144.385 2069.84 145.844C2062.86 147.302 2056.82 149.646 2051.72 152.875C2046.61 156.104 2044.06 160.479 2044.06 166C2044.06 170.062 2046.15 173.292 2050.31 175.688C2054.58 177.979 2059.79 179.75 2065.94 181C2072.19 182.25 2078.44 183.188 2084.69 183.812C2090.94 184.333 2096.04 184.802 2100 185.219C2107.71 186.052 2115.31 187.354 2122.81 189.125C2130.31 190.792 2137.19 193.292 2143.44 196.625C2149.69 199.958 2154.64 204.49 2158.28 210.219C2162.03 215.948 2163.91 223.24 2163.91 232.094C2163.91 244.698 2160.26 255.01 2152.97 263.031C2145.68 271.052 2136.35 276.99 2125 280.844C2113.65 284.698 2101.77 286.625 2089.38 286.625C2072.4 286.625 2056.93 283.292 2042.97 276.625C2029.11 269.854 2018.85 260.01 2012.19 247.094C2010.94 244.594 2010.31 242.146 2010.31 239.75C2010.31 235.479 2011.82 231.833 2014.84 228.812C2017.97 225.688 2021.67 224.125 2025.94 224.125C2028.65 224.125 2031.35 225.01 2034.06 226.781C2036.88 228.448 2038.85 230.479 2040 232.875C2044.06 240.792 2050.31 246.521 2058.75 250.062C2067.29 253.604 2077.45 255.375 2089.22 255.375C2095.47 255.375 2101.93 254.698 2108.59 253.344C2115.36 251.885 2121.04 249.438 2125.62 246C2130.31 242.562 2132.66 237.875 2132.66 231.938C2132.66 227.354 2130.62 224.073 2126.56 222.094C2122.6 220.01 2117.81 218.656 2112.19 218.031C2106.67 217.406 2101.51 216.833 2096.72 216.312C2087.55 215.375 2078.07 214.177 2068.28 212.719C2058.49 211.156 2049.38 208.708 2040.94 205.375C2032.6 202.042 2025.83 197.25 2020.62 191C2015.42 184.75 2012.81 176.417 2012.81 166C2012.81 156.625 2015.05 148.552 2019.53 141.781C2024.11 135.01 2030.16 129.49 2037.66 125.219C2045.16 120.844 2053.33 117.615 2062.19 115.531C2071.15 113.448 2080 112.406 2088.75 112.406Z" stroke="white" stroke-width="8"/>
<path d="M200 0C89.5431 2e-05 -2e-05 89.5431 0 200C2e-05 310.457 89.5431 400 200 400L385 400C393.284 400 400 393.284 400 385L400 200C400 89.543 310.457 -2e-05 200 0Z" fill="url(#paint0_linear_90_156)"/>
<path d="M334.98 197.93C335.4 224.88 327.7 250.04 314.16 271.11C311.28 275.61 308.13 279.92 304.74 284.02C298.95 291.01 292.47 297.4 285.38 303.07L262.58 280.27C270.06 274.71 276.74 268.13 282.41 260.73C282.98 259.98 283.55 259.22 284.09 258.45C284.65 257.69 285.2 256.91 285.72 256.13C286.26 255.35 286.78 254.56 287.28 253.77C287.79 252.99 288.27 252.21 288.75 251.41C288.76 251.39 288.77 251.38 288.78 251.36C298.09 235.86 303.33 217.64 302.98 198.19C302.04 145.15 259.22 101.71 206.19 100.05C148.33 98.2401 100.91 145.87 103.07 203.8C105.02 256.27 147.89 298.62 200.39 299.97C212.21 300.27 223.58 298.51 234.19 295.02C234.72 294.85 235.31 294.98 235.71 295.38L258.06 317.73C258.8 318.47 258.58 319.73 257.63 320.16C240.32 328.06 221 332.33 200.67 331.98C128.38 330.73 71 272.3 71 200C71 126.19 131.88 66.3502 206.06 68.0301C276.67 69.6402 333.9 127.32 334.98 197.93Z" fill="white"/>
<path d="M363.749 361.678L355.806 384.547C355.469 385.517 354.233 385.801 353.507 385.075L322.595 354.162C322.218 353.785 322.089 353.226 322.264 352.722L325.054 344.686L330.659 328.522C330.799 328.12 331.115 327.803 331.518 327.663L347.688 322.051L355.908 319.191C356.412 319.016 356.972 319.144 357.35 319.522L388.147 350.319C388.929 351.102 388.624 352.433 387.578 352.797C379.943 355.449 372.308 358.101 364.674 360.753C364.24 360.904 363.899 361.244 363.749 361.678Z" fill="white"/>
<path d="M314.16 271.11C311.28 275.61 308.13 279.92 304.74 284.02C297.29 276.25 289.86 268.5 282.41 260.73L282.4 260.72C282.98 259.97 283.54 259.22 284.09 258.45C284.65 257.69 285.19 256.91 285.72 256.13C286.25 255.35 286.77 254.56 287.28 253.77C287.78 252.99 288.27 252.2 288.75 251.41C288.76 251.39 288.77 251.38 288.78 251.36C297.24 257.94 305.7 264.53 314.16 271.11Z" fill="#C9C9F4"/>
<path d="M288.783 251.356C286.833 254.597 284.703 257.727 282.403 260.717C264.602 242.144 246.801 223.572 229 205C238.849 212.589 248.689 220.194 258.518 227.815C268.62 235.648 278.708 243.495 288.783 251.356Z" fill="#4040E0"/>
<path d="M317.402 315.333L313.026 327.972C312.663 329.019 311.331 329.325 310.548 328.542L207.955 225.95C207.23 225.224 207.428 224 208.351 223.552C212.19 221.691 215.793 219.161 218.975 215.979C222.164 212.789 224.689 209.192 226.555 205.359C227.003 204.437 228.227 204.24 228.951 204.965L331.538 307.552C332.321 308.335 332.015 309.668 330.968 310.03L318.329 314.406C317.894 314.557 317.552 314.898 317.402 315.333Z" fill="white"/>
</g>
<defs>
<linearGradient id="paint0_linear_90_156" x1="58.5786" y1="58.5786" x2="395.607" y2="395.607" gradientUnits="userSpaceOnUse">
<stop stop-color="#6366F1"/>
<stop offset="1" stop-color="#4741F2"/>
</linearGradient>
<clipPath id="clip0_90_156">
<rect width="2168" height="400" fill="white"/>
</clipPath>
</defs>
</svg>
