<svg width="1619" height="400" viewBox="0 0 1619 400" fill="none" xmlns="http://www.w3.org/2000/svg">
<g clip-path="url(#clip0_63_11)">
<path d="M528 200.391C528 188.828 530.031 177.839 534.094 167.422C538.156 157.007 543.884 147.761 551.281 139.687C558.676 131.616 567.348 125.234 577.297 120.547C587.243 115.859 598.103 113.516 609.875 113.516C619.562 113.516 629.274 115.964 639.016 120.859C648.754 125.757 656.594 132.476 662.531 141.016L664.406 128.359C665.031 124.089 666.41 120.417 668.547 117.344C670.681 114.272 673.884 112.734 678.156 112.734C682.426 112.734 686.098 114.272 689.172 117.344C692.243 120.417 693.781 124.089 693.781 128.359V327.891C693.781 332.16 692.243 335.832 689.172 338.906C686.098 341.978 682.426 343.516 678.156 343.516C673.884 343.516 670.212 341.978 667.141 338.906C664.066 335.832 662.531 332.16 662.531 327.891V262.109C655.863 269.922 648.312 276.121 639.875 280.703C631.438 285.285 621.801 287.578 610.969 287.578C600.344 287.578 590.082 285.547 580.188 281.484C570.29 277.422 561.54 271.694 553.938 264.297C545.395 255.757 538.938 245.913 534.562 234.766C530.188 223.621 528 212.163 528 200.391ZM609.562 144.766C599.978 144.766 591.359 147.371 583.703 152.578C576.047 157.788 570.031 164.609 565.656 173.047C561.281 181.484 559.094 190.601 559.094 200.391C559.094 210.078 561.306 219.219 565.734 227.813C570.16 236.406 576.254 243.387 584.016 248.75C591.774 254.116 600.551 256.797 610.344 256.797C620.344 256.797 629.172 254.246 636.828 249.141C644.484 244.038 650.5 237.266 654.875 228.828C659.25 220.391 661.438 211.172 661.438 201.172C661.438 193.882 660.16 186.719 657.609 179.688C655.056 172.656 651.438 166.589 646.75 161.484C642.062 156.277 636.384 152.188 629.719 149.219C623.051 146.25 616.332 144.766 609.562 144.766Z" fill="#4741F2"/>
<path d="M833.156 263.203C827.531 268.621 820.812 274.063 813 279.531C805.188 285 796.02 287.734 785.5 287.734C771.853 287.734 760.5 284.116 751.438 276.875C742.375 269.637 735.707 261.226 731.438 251.641C728.103 244.038 726.098 236.512 725.422 229.063C724.743 221.616 724.406 214.609 724.406 208.047V129.141C724.406 124.871 725.941 121.199 729.016 118.125C732.087 115.054 735.759 113.516 740.031 113.516C744.301 113.516 747.973 115.054 751.047 118.125C754.118 121.199 755.656 124.871 755.656 129.141V208.047C755.656 214.089 755.941 219.741 756.516 225C757.087 230.262 758.259 234.871 760.031 238.828C762.113 243.413 765.238 247.5 769.406 251.094C773.571 254.688 778.832 256.484 785.188 256.484C800.603 256.484 812.453 250.601 820.734 238.828C829.016 227.059 833.103 211.172 833 191.172L832.844 128.828C832.844 124.558 834.379 120.886 837.453 117.813C840.524 114.741 844.196 113.203 848.469 113.203C852.844 113.203 856.54 114.741 859.562 117.813C862.582 120.886 864.094 124.609 864.094 128.984L864.406 272.578C864.406 276.851 863.234 280.522 860.891 283.594C858.547 286.665 855.238 288.203 850.969 288.203C846.696 288.203 843.415 286.665 841.125 283.594C838.832 280.522 837.062 276.851 835.812 272.578L833.156 263.203Z" fill="#4741F2"/>
<path d="M893.938 126.641C893.938 122.683 895.603 119.453 898.938 116.953C902.27 114.453 905.5 113.203 908.625 113.203C913.207 113.203 917.113 114.558 920.344 117.266C923.571 119.976 925.188 123.569 925.188 128.047V128.203L925.5 272.891C925.5 277.059 923.962 280.601 920.891 283.516C917.816 286.431 914.145 287.891 909.875 287.891C905.5 287.891 901.801 286.406 898.781 283.438C895.759 280.469 894.25 276.902 894.25 272.734L893.938 126.641ZM910.812 97.1094C906.02 97.1094 902.113 95.625 899.094 92.6563C896.071 89.6875 894.509 86.0156 894.406 81.6406L894.094 69.7656C894.094 65.8081 895.863 62.605 899.406 60.1563C902.946 57.71 906.332 56.4844 909.562 56.4844C913.938 56.4844 917.609 57.9956 920.578 61.0156C923.547 64.0381 925.082 67.6831 925.188 71.9531L925.344 81.3281C925.344 85.3906 923.988 89.0381 921.281 92.2656C918.571 95.4956 915.082 97.1094 910.812 97.1094Z" fill="#4741F2"/>
<path d="M1085.66 113.203C1089.41 113.203 1092.82 114.714 1095.89 117.734C1098.96 120.757 1100.5 124.089 1100.5 127.734C1100.5 130.964 1099.98 133.621 1098.94 135.703L1033 278.359C1030.19 284.297 1025.39 287.266 1018.62 287.266C1011.64 287.266 1006.96 284.09 1004.56 277.734L945.5 135.078C944.665 133.308 944.25 130.859 944.25 127.734C944.25 124.402 945.681 121.147 948.547 117.969C951.41 114.792 954.613 113.203 958.156 113.203C966.281 113.203 971.696 116.433 974.406 122.891L1019.88 233.516L1070.66 122.266C1073.47 116.226 1078.47 113.203 1085.66 113.203Z" fill="#4741F2"/>
<path d="M1193.94 112.422C1201.64 112.422 1209.17 113.96 1216.52 117.031C1223.86 120.105 1230.42 123.96 1236.2 128.594C1241.98 133.23 1246.28 137.996 1249.09 142.891L1250.81 127.891C1250.81 123.621 1252.06 119.949 1254.56 116.875C1257.06 113.804 1260.45 112.266 1264.72 112.266C1268.99 112.266 1272.66 113.804 1275.73 116.875C1278.81 119.949 1280.34 123.621 1280.34 127.891V128.203L1280.03 272.891C1280.03 277.163 1278.49 280.835 1275.42 283.906C1272.35 286.978 1268.68 288.516 1264.41 288.516C1260.13 288.516 1256.75 286.978 1254.25 283.906C1251.75 280.835 1250.5 277.163 1250.5 272.891L1248.78 260.391C1243.36 269.663 1235.45 276.563 1225.03 281.094C1214.61 285.625 1204.14 287.891 1193.62 287.891C1181.85 287.891 1170.81 285.571 1160.5 280.938C1150.19 276.304 1141.12 269.922 1133.31 261.797C1125.5 253.672 1119.38 244.351 1114.95 233.828C1110.52 223.308 1108.31 212.214 1108.31 200.547C1108.31 188.984 1110.47 177.917 1114.8 167.344C1119.12 156.772 1125.16 147.344 1132.92 139.063C1140.68 130.781 1149.74 124.272 1160.11 119.531C1170.47 114.792 1181.75 112.422 1193.94 112.422ZM1247.84 200.234C1247.84 190.027 1245.47 180.652 1240.73 172.109C1235.99 163.569 1229.56 156.694 1221.44 151.484C1213.31 146.277 1204.04 143.672 1193.62 143.672C1183.42 143.672 1174.2 146.277 1165.97 151.484C1157.74 156.694 1151.23 163.594 1146.44 172.187C1141.64 180.781 1139.25 190.078 1139.25 200.078C1139.25 210.183 1141.7 219.531 1146.59 228.125C1151.49 236.719 1158.08 243.621 1166.36 248.828C1174.64 254.038 1183.78 256.641 1193.78 256.641C1203.78 256.641 1212.87 254.038 1221.05 248.828C1229.22 243.621 1235.73 236.719 1240.58 228.125C1245.42 219.531 1247.84 210.234 1247.84 200.234Z" fill="#4741F2"/>
<path d="M1334.09 284.922C1327.01 284.922 1320.84 282.422 1315.58 277.422C1310.32 272.422 1307.69 266.328 1307.69 259.141C1307.69 251.953 1310.32 245.887 1315.58 240.938C1320.84 235.991 1327.01 233.516 1334.09 233.516C1341.18 233.516 1347.38 235.991 1352.69 240.938C1358 245.887 1360.66 251.953 1360.66 259.141C1360.66 266.328 1358 272.422 1352.69 277.422C1347.38 282.422 1341.18 284.922 1334.09 284.922Z" fill="#4741F2"/>
<path d="M1469.72 112.422C1477.43 112.422 1484.95 113.96 1492.3 117.031C1499.64 120.105 1506.2 123.96 1511.98 128.594C1517.77 133.23 1522.06 137.996 1524.88 142.891L1526.59 127.891C1526.59 123.621 1527.84 119.949 1530.34 116.875C1532.84 113.804 1536.23 112.266 1540.5 112.266C1544.77 112.266 1548.44 113.804 1551.52 116.875C1554.59 119.949 1556.12 123.621 1556.12 127.891V128.203L1555.81 272.891C1555.81 277.163 1554.27 280.835 1551.2 283.906C1548.13 286.978 1544.46 288.516 1540.19 288.516C1535.92 288.516 1532.53 286.978 1530.03 283.906C1527.53 280.835 1526.28 277.163 1526.28 272.891L1524.56 260.391C1519.14 269.663 1511.23 276.563 1500.81 281.094C1490.39 285.625 1479.93 287.891 1469.41 287.891C1457.63 287.891 1446.59 285.571 1436.28 280.938C1425.97 276.304 1416.91 269.922 1409.09 261.797C1401.28 253.672 1395.16 244.351 1390.73 233.828C1386.31 223.308 1384.09 212.214 1384.09 200.547C1384.09 188.984 1386.25 177.917 1390.58 167.344C1394.9 156.772 1400.94 147.344 1408.7 139.063C1416.46 130.781 1425.52 124.272 1435.89 119.531C1446.25 114.792 1457.53 112.422 1469.72 112.422ZM1523.62 200.234C1523.62 190.027 1521.25 180.652 1516.52 172.109C1511.77 163.569 1505.34 156.694 1497.22 151.484C1489.09 146.277 1479.82 143.672 1469.41 143.672C1459.2 143.672 1449.98 146.277 1441.75 151.484C1433.52 156.694 1427.01 163.594 1422.22 172.187C1417.43 180.781 1415.03 190.078 1415.03 200.078C1415.03 210.183 1417.48 219.531 1422.38 228.125C1427.27 236.719 1433.86 243.621 1442.14 248.828C1450.42 254.038 1459.56 256.641 1469.56 256.641C1479.56 256.641 1488.65 254.038 1496.83 248.828C1505 243.621 1511.52 236.719 1516.36 228.125C1521.2 219.531 1523.62 210.234 1523.62 200.234Z" fill="#4741F2"/>
<path d="M1586.59 126.641C1586.59 122.683 1588.26 119.453 1591.59 116.953C1594.93 114.453 1598.16 113.203 1601.28 113.203C1605.86 113.203 1609.77 114.558 1613 117.266C1616.23 119.976 1617.84 123.569 1617.84 128.047V128.203L1618.16 272.891C1618.16 277.059 1616.62 280.601 1613.55 283.516C1610.47 286.431 1606.8 287.891 1602.53 287.891C1598.16 287.891 1594.46 286.406 1591.44 283.438C1588.42 280.469 1586.91 276.902 1586.91 272.734L1586.59 126.641ZM1603.47 97.1094C1598.68 97.1094 1594.77 95.625 1591.75 92.6563C1588.73 89.6875 1587.17 86.0156 1587.06 81.6406L1586.75 69.7656C1586.75 65.8081 1588.52 62.605 1592.06 60.1563C1595.6 57.71 1598.99 56.4844 1602.22 56.4844C1606.59 56.4844 1610.27 57.9956 1613.23 61.0156C1616.2 64.0381 1617.74 67.6831 1617.84 71.9531L1618 81.3281C1618 85.3906 1616.64 89.0381 1613.94 92.2656C1611.23 95.4956 1607.74 97.1094 1603.47 97.1094Z" fill="#4741F2"/>
<path d="M200 0C89.5431 2e-05 -2e-05 89.5431 0 200C2e-05 310.457 89.5431 400 200 400L385 400C393.284 400 400 393.284 400 385L400 200C400 89.543 310.457 -2e-05 200 0Z" fill="url(#paint0_linear_63_11)"/>
<path d="M334.98 197.93C335.4 224.88 327.7 250.04 314.16 271.11C311.28 275.61 308.13 279.92 304.74 284.02C298.95 291.01 292.47 297.4 285.38 303.07L262.58 280.27C270.06 274.71 276.74 268.13 282.41 260.73C282.98 259.98 283.55 259.22 284.09 258.45C284.65 257.69 285.2 256.91 285.72 256.13C286.26 255.35 286.78 254.56 287.28 253.77C287.79 252.99 288.27 252.21 288.75 251.41C288.76 251.39 288.77 251.38 288.78 251.36C298.09 235.86 303.33 217.64 302.98 198.19C302.04 145.15 259.22 101.71 206.19 100.05C148.33 98.24 100.91 145.87 103.07 203.8C105.02 256.27 147.89 298.62 200.39 299.97C212.21 300.27 223.58 298.51 234.19 295.02C234.72 294.85 235.31 294.98 235.71 295.38L258.06 317.73C258.8 318.47 258.58 319.73 257.63 320.16C240.32 328.06 221 332.33 200.67 331.98C128.38 330.73 71 272.3 71 200C71 126.19 131.88 66.3501 206.06 68.03C276.67 69.6401 333.9 127.32 334.98 197.93Z" fill="white"/>
<path d="M363.749 361.678L355.806 384.547C355.469 385.517 354.233 385.801 353.507 385.075L322.595 354.162C322.218 353.785 322.089 353.226 322.264 352.722L325.054 344.686L330.659 328.522C330.799 328.12 331.115 327.803 331.518 327.663L347.688 322.051L355.908 319.191C356.412 319.016 356.972 319.144 357.35 319.522L388.147 350.319C388.929 351.102 388.624 352.433 387.578 352.797C379.943 355.449 372.308 358.101 364.674 360.753C364.24 360.904 363.899 361.244 363.749 361.678Z" fill="white"/>
<path d="M314.16 271.11C311.28 275.61 308.13 279.92 304.74 284.02C297.29 276.25 289.86 268.5 282.41 260.73L282.4 260.72C282.98 259.97 283.54 259.22 284.09 258.45C284.65 257.69 285.19 256.91 285.72 256.13C286.25 255.35 286.77 254.56 287.28 253.77C287.78 252.99 288.27 252.2 288.75 251.41C288.76 251.39 288.77 251.38 288.78 251.36C297.24 257.94 305.7 264.53 314.16 271.11Z" fill="#C9C9F4"/>
<path d="M288.783 251.356C286.833 254.597 284.703 257.727 282.403 260.717C264.602 242.144 246.801 223.572 229 205C238.849 212.589 248.689 220.194 258.518 227.815C268.62 235.648 278.708 243.495 288.783 251.356Z" fill="#4040E0"/>
<path d="M317.402 315.333L313.026 327.972C312.663 329.019 311.331 329.325 310.548 328.542L207.955 225.95C207.23 225.224 207.428 224 208.351 223.552C212.19 221.691 215.793 219.161 218.975 215.979C222.164 212.789 224.689 209.192 226.555 205.359C227.003 204.437 228.227 204.24 228.951 204.965L331.538 307.552C332.321 308.335 332.015 309.668 330.968 310.03L318.329 314.406C317.894 314.557 317.552 314.898 317.402 315.333Z" fill="white"/>
</g>
<defs>
<linearGradient id="paint0_linear_63_11" x1="58.5786" y1="58.5786" x2="395.607" y2="395.607" gradientUnits="userSpaceOnUse">
<stop stop-color="#6366F1"/>
<stop offset="1" stop-color="#4741F2"/>
</linearGradient>
<clipPath id="clip0_63_11">
<rect width="1618.16" height="400" fill="white"/>
</clipPath>
</defs>
</svg>
