<svg width="400" height="400" viewBox="0 0 400 400" fill="none" xmlns="http://www.w3.org/2000/svg">
<g clip-path="url(#clip0_63_28)">
<path d="M200 0C89.5431 2e-05 -2e-05 89.5431 0 200C2e-05 310.457 89.5431 400 200 400L385 400C393.284 400 400 393.284 400 385L400 200C400 89.543 310.457 -2e-05 200 0Z" fill="url(#paint0_linear_63_28)"/>
<path d="M334.98 197.93C335.4 224.88 327.7 250.04 314.16 271.11C311.28 275.61 308.13 279.92 304.74 284.02C298.95 291.01 292.47 297.4 285.38 303.07L262.58 280.27C270.06 274.71 276.74 268.13 282.41 260.73C282.98 259.98 283.55 259.22 284.09 258.45C284.65 257.69 285.2 256.91 285.72 256.13C286.26 255.35 286.78 254.56 287.28 253.77C287.79 252.99 288.27 252.21 288.75 251.41C288.76 251.39 288.77 251.38 288.78 251.36C298.09 235.86 303.33 217.64 302.98 198.19C302.04 145.15 259.22 101.71 206.19 100.05C148.33 98.2401 100.91 145.87 103.07 203.8C105.02 256.27 147.89 298.62 200.39 299.97C212.21 300.27 223.58 298.51 234.19 295.02C234.72 294.85 235.31 294.98 235.71 295.38L258.06 317.73C258.8 318.47 258.58 319.73 257.63 320.16C240.32 328.06 221 332.33 200.67 331.98C128.38 330.73 71 272.3 71 200C71 126.19 131.88 66.3502 206.06 68.0301C276.67 69.6402 333.9 127.32 334.98 197.93Z" fill="white"/>
<path d="M363.749 361.678L355.806 384.547C355.469 385.517 354.233 385.801 353.507 385.075L322.595 354.162C322.218 353.785 322.089 353.226 322.264 352.722L325.054 344.686L330.659 328.522C330.799 328.12 331.115 327.803 331.518 327.663L347.688 322.051L355.908 319.191C356.412 319.016 356.972 319.144 357.35 319.522L388.147 350.319C388.929 351.102 388.624 352.433 387.578 352.797C379.943 355.449 372.309 358.101 364.674 360.753C364.24 360.904 363.899 361.244 363.749 361.678Z" fill="white"/>
<path d="M314.16 271.11C311.28 275.61 308.13 279.92 304.74 284.02C297.29 276.25 289.86 268.5 282.41 260.73L282.4 260.72C282.98 259.97 283.54 259.22 284.09 258.45C284.65 257.69 285.19 256.91 285.72 256.13C286.25 255.35 286.77 254.56 287.28 253.77C287.78 252.99 288.27 252.2 288.75 251.41C288.76 251.39 288.77 251.38 288.78 251.36C297.24 257.94 305.7 264.53 314.16 271.11Z" fill="#C9C9F4"/>
<path d="M288.783 251.356C286.833 254.597 284.703 257.727 282.403 260.717C264.602 242.144 246.801 223.572 229 205C238.849 212.589 248.689 220.194 258.518 227.815C268.62 235.648 278.708 243.495 288.783 251.356Z" fill="#4040E0"/>
<path d="M317.402 315.333L313.026 327.972C312.663 329.019 311.331 329.325 310.547 328.542L207.955 225.95C207.23 225.224 207.428 224 208.351 223.552C212.19 221.691 215.792 219.161 218.974 215.979C222.164 212.789 224.689 209.192 226.555 205.359C227.003 204.437 228.227 204.24 228.951 204.965L331.538 307.552C332.321 308.335 332.015 309.668 330.968 310.03L318.328 314.406C317.894 314.557 317.552 314.898 317.402 315.333Z" fill="white"/>
</g>
<defs>
<linearGradient id="paint0_linear_63_28" x1="58.5786" y1="58.5786" x2="395.607" y2="395.607" gradientUnits="userSpaceOnUse">
<stop stop-color="#6366F1"/>
<stop offset="1" stop-color="#4741F2"/>
</linearGradient>
<clipPath id="clip0_63_28">
<rect width="400" height="400" fill="white"/>
</clipPath>
</defs>
</svg>
